<?xml version="1.0" encoding="UTF-8" standalone="no"?>
<!-- Created with Inkscape (http://www.inkscape.org/) -->

<svg
   width="210mm"
   height="297mm"
   viewBox="0 0 210 297"
   version="1.1"
   id="svg1"
   xml:space="preserve"
   inkscape:export-filename="logo.png"
   inkscape:export-xdpi="69.018608"
   inkscape:export-ydpi="69.018608"
   inkscape:version="1.3 (0e150ed6c4, 2023-07-21)"
   sodipodi:docname="logo.svg"
   xmlns:inkscape="http://www.inkscape.org/namespaces/inkscape"
   xmlns:sodipodi="http://sodipodi.sourceforge.net/DTD/sodipodi-0.dtd"
   xmlns:xlink="http://www.w3.org/1999/xlink"
   xmlns="http://www.w3.org/2000/svg"
   xmlns:svg="http://www.w3.org/2000/svg"><sodipodi:namedview
     id="namedview1"
     pagecolor="#ffffff"
     bordercolor="#000000"
     borderopacity="0.25"
     inkscape:showpageshadow="2"
     inkscape:pageopacity="0.0"
     inkscape:pagecheckerboard="0"
     inkscape:deskcolor="#d1d1d1"
     inkscape:document-units="mm"
     inkscape:zoom="1.4485269"
     inkscape:cx="408.34588"
     inkscape:cy="340.00058"
     inkscape:window-width="1920"
     inkscape:window-height="1009"
     inkscape:window-x="-8"
     inkscape:window-y="-8"
     inkscape:window-maximized="1"
     inkscape:current-layer="layer1" /><defs
     id="defs1"><linearGradient
       id="linearGradient30"><stop
         style="stop-color:#b0daf5;stop-opacity:1;"
         offset="0"
         id="stop29" /><stop
         style="stop-color:#7b81d4;stop-opacity:1;"
         offset="1"
         id="stop30" /></linearGradient><linearGradient
       id="linearGradient26"
       inkscape:collect="always"><stop
         style="stop-color:#424242;stop-opacity:1;"
         offset="0"
         id="stop27" /><stop
         style="stop-color:#2f2f2f;stop-opacity:1;"
         offset="1"
         id="stop28" /></linearGradient><linearGradient
       id="linearGradient6"><stop
         style="stop-color:#b0f5e6;stop-opacity:1;"
         offset="0"
         id="stop25" /><stop
         style="stop-color:#5663ef;stop-opacity:1;"
         offset="1"
         id="stop26" /></linearGradient><linearGradient
       id="linearGradient22"
       inkscape:swatch="gradient"><stop
         style="stop-color:#c69884;stop-opacity:1;"
         offset="0"
         id="stop21" /><stop
         style="stop-color:#c69884;stop-opacity:1"
         offset="1"
         id="stop22" /></linearGradient><linearGradient
       id="linearGradient18"
       inkscape:swatch="gradient"><stop
         style="stop-color:#000000;stop-opacity:1;"
         offset="0"
         id="stop18" /><stop
         style="stop-color:#000000;stop-opacity:0;"
         offset="1"
         id="stop19" /></linearGradient><linearGradient
       id="linearGradient14"
       inkscape:swatch="gradient"><stop
         style="stop-color:#000000;stop-opacity:1;"
         offset="0"
         id="stop15" /><stop
         style="stop-color:#000000;stop-opacity:0;"
         offset="1"
         id="stop16" /></linearGradient><linearGradient
       id="linearGradient6-1"><stop
         style="stop-color:#c69884;stop-opacity:1;"
         offset="0"
         id="stop7" /><stop
         style="stop-color:#484364;stop-opacity:1;"
         offset="1"
         id="stop8" /></linearGradient><linearGradient
       id="swatch2"
       inkscape:swatch="solid"><stop
         style="stop-color:#000000;stop-opacity:1;"
         offset="0"
         id="stop2" /></linearGradient><linearGradient
       id="swatch1"
       inkscape:swatch="solid"><stop
         style="stop-color:#000000;stop-opacity:1;"
         offset="0"
         id="stop1" /></linearGradient><linearGradient
       inkscape:collect="always"
       xlink:href="#linearGradient30"
       id="linearGradient17"
       gradientUnits="userSpaceOnUse"
       x1="50.41581"
       y1="35.709404"
       x2="163.2952"
       y2="148.58879" /><linearGradient
       inkscape:collect="always"
       xlink:href="#linearGradient6"
       id="linearGradient25"
       gradientUnits="userSpaceOnUse"
       x1="-4.5395808"
       y1="-5.0356774"
       x2="21.098148"
       y2="20.602053" /><linearGradient
       inkscape:collect="always"
       xlink:href="#linearGradient26"
       id="linearGradient28"
       x1="50.41581"
       y1="35.709404"
       x2="163.2952"
       y2="148.58879"
       gradientUnits="userSpaceOnUse" /></defs><g
     inkscape:label="Layer 1"
     inkscape:groupmode="layer"
     id="layer1"><rect
       style="fill:url(#linearGradient28);stroke:url(#linearGradient17);stroke-width:5.292;stroke-linecap:round;stroke-linejoin:round;stroke-miterlimit:8.4;fill-opacity:1;stroke-opacity:1;stroke-dasharray:none"
       id="rect1"
       width="118.36162"
       height="118.36162"
       x="47.856091"
       y="32.878231"
       ry="14.971552" /><g
       style="fill:url(#linearGradient25);fill-opacity:1;stroke:none;stroke-width:1.00005062;stroke-dasharray:none"
       id="g1"
       transform="matrix(4.385778,0,0,4.385778,71.950676,56.972816)"><path
         d="M 6,3 A 3,3 0 1 1 0,3 3,3 0 0 1 6,3 M 1,3 A 2,2 0 1 0 5,3 2,2 0 0 0 1,3"
         id="path1"
         style="fill:url(#linearGradient25);fill-opacity:1;stroke:none;stroke-width:1.00005062;stroke-dasharray:none" /><path
         d="m 9,6 h 0.5 a 2,2 0 0 1 1.983,1.738 l 3.11,-1.382 A 1,1 0 0 1 16,7.269 v 7.462 a 1,1 0 0 1 -1.406,0.913 L 11.483,14.262 A 2,2 0 0 1 9.5,16 H 2 A 2,2 0 0 1 0,14 V 8 A 2,2 0 0 1 2,6 Z m 6,8.73 V 7.27 l -3.5,1.555 v 4.35 z M 1,8 v 6 a 1,1 0 0 0 1,1 h 7.5 a 1,1 0 0 0 1,-1 V 8 A 1,1 0 0 0 9.5,7 H 2 A 1,1 0 0 0 1,8"
         id="path2"
         style="fill:url(#linearGradient25);fill-opacity:1;stroke:none;stroke-width:1.00005062;stroke-dasharray:none" /><path
         d="M 9,6 A 3,3 0 1 0 9,0 3,3 0 0 0 9,6 M 7,3 a 2,2 0 1 1 4,0 2,2 0 0 1 -4,0"
         id="path3"
         style="fill:url(#linearGradient25);fill-opacity:1;stroke:none;stroke-width:1.00005062;stroke-dasharray:none" /></g></g></svg>
